<mxfile host="app.diagrams.net" agent="Mozilla/5.0 (Windows NT 10.0; Win64; x64) AppleWebKit/537.36 (KHTML, like Gecko) Chrome/128.0.0.0 Safari/537.36" version="24.9.1">
  <diagram name="Page-1" id="HCXtLOHnEH5D50suYZMZ">
    <mxGraphModel dx="2388" dy="1432" grid="0" gridSize="10" guides="1" tooltips="1" connect="1" arrows="1" fold="1" page="1" pageScale="1" pageWidth="1600" pageHeight="1000" background="none" math="0" shadow="0">
      <root>
        <mxCell id="0" />
        <mxCell id="1" parent="0" />
        <mxCell id="IIGgRlWlPwrDrrDaBenJ-39" style="edgeStyle=orthogonalEdgeStyle;rounded=0;orthogonalLoop=1;jettySize=auto;html=1;exitX=1;exitY=0.5;exitDx=0;exitDy=0;entryX=0;entryY=0.5;entryDx=0;entryDy=0;" parent="1" source="IIGgRlWlPwrDrrDaBenJ-1" target="IIGgRlWlPwrDrrDaBenJ-2" edge="1">
          <mxGeometry relative="1" as="geometry" />
        </mxCell>
        <mxCell id="IIGgRlWlPwrDrrDaBenJ-1" value="&lt;span style=&quot;font-size: 20px;&quot;&gt;Importing dataset&lt;/span&gt;&lt;div style=&quot;font-size: 20px;&quot;&gt;&lt;span style=&quot;font-size: 20px;&quot;&gt;(1k images for each class)&lt;/span&gt;&lt;/div&gt;" style="rounded=0;whiteSpace=wrap;html=1;fillColor=#60a917;fontColor=#ffffff;strokeColor=#2D7600;fontStyle=1;fontSize=20;" parent="1" vertex="1">
          <mxGeometry x="15" y="37" width="190" height="180" as="geometry" />
        </mxCell>
        <mxCell id="IIGgRlWlPwrDrrDaBenJ-40" style="edgeStyle=orthogonalEdgeStyle;rounded=0;orthogonalLoop=1;jettySize=auto;html=1;exitX=1;exitY=0.5;exitDx=0;exitDy=0;entryX=0;entryY=0.5;entryDx=0;entryDy=0;" parent="1" source="IIGgRlWlPwrDrrDaBenJ-2" target="IIGgRlWlPwrDrrDaBenJ-4" edge="1">
          <mxGeometry relative="1" as="geometry" />
        </mxCell>
        <mxCell id="IIGgRlWlPwrDrrDaBenJ-2" value="&lt;span style=&quot;font-size: 20px;&quot;&gt;Labeling images to specific class&lt;/span&gt;" style="rounded=0;whiteSpace=wrap;html=1;fillColor=#1ba1e2;fontColor=#ffffff;strokeColor=#006EAF;fontStyle=1;fontSize=20;" parent="1" vertex="1">
          <mxGeometry x="300" y="36" width="190" height="180" as="geometry" />
        </mxCell>
        <mxCell id="IIGgRlWlPwrDrrDaBenJ-41" style="edgeStyle=orthogonalEdgeStyle;rounded=0;orthogonalLoop=1;jettySize=auto;html=1;exitX=1;exitY=0.5;exitDx=0;exitDy=0;entryX=0;entryY=0.5;entryDx=0;entryDy=0;" parent="1" source="IIGgRlWlPwrDrrDaBenJ-4" target="IIGgRlWlPwrDrrDaBenJ-7" edge="1">
          <mxGeometry relative="1" as="geometry" />
        </mxCell>
        <mxCell id="IIGgRlWlPwrDrrDaBenJ-4" value="&lt;span style=&quot;font-size: 20px;&quot;&gt;Resizing images to uniform size 256*256&lt;/span&gt;" style="rounded=0;whiteSpace=wrap;html=1;fillColor=#1ba1e2;fontColor=#ffffff;strokeColor=#006EAF;fontStyle=1;fontSize=20;" parent="1" vertex="1">
          <mxGeometry x="564" y="37" width="190" height="180" as="geometry" />
        </mxCell>
        <mxCell id="IIGgRlWlPwrDrrDaBenJ-42" style="edgeStyle=orthogonalEdgeStyle;rounded=0;orthogonalLoop=1;jettySize=auto;html=1;exitX=1;exitY=0.5;exitDx=0;exitDy=0;entryX=0;entryY=0.5;entryDx=0;entryDy=0;" parent="1" source="IIGgRlWlPwrDrrDaBenJ-7" target="IIGgRlWlPwrDrrDaBenJ-15" edge="1">
          <mxGeometry relative="1" as="geometry" />
        </mxCell>
        <mxCell id="IIGgRlWlPwrDrrDaBenJ-7" value="&lt;span style=&quot;font-size: 20px;&quot;&gt;Shuffling images randomly&amp;nbsp;&lt;/span&gt;&lt;div style=&quot;font-size: 20px;&quot;&gt;&lt;span style=&quot;background-color: initial; font-size: 20px;&quot;&gt;(to prevent pattern learning)&amp;nbsp;&lt;/span&gt;&lt;/div&gt;" style="rounded=0;whiteSpace=wrap;html=1;fillColor=#1ba1e2;fontColor=#ffffff;strokeColor=#006EAF;fontStyle=1;fontSize=20;" parent="1" vertex="1">
          <mxGeometry x="827" y="38" width="190" height="180" as="geometry" />
        </mxCell>
        <mxCell id="IIGgRlWlPwrDrrDaBenJ-44" style="edgeStyle=orthogonalEdgeStyle;rounded=0;orthogonalLoop=1;jettySize=auto;html=1;exitX=1;exitY=0.5;exitDx=0;exitDy=0;entryX=1;entryY=0.5;entryDx=0;entryDy=0;" parent="1" source="IIGgRlWlPwrDrrDaBenJ-9" target="IIGgRlWlPwrDrrDaBenJ-11" edge="1">
          <mxGeometry relative="1" as="geometry" />
        </mxCell>
        <mxCell id="IIGgRlWlPwrDrrDaBenJ-45" style="edgeStyle=orthogonalEdgeStyle;rounded=0;orthogonalLoop=1;jettySize=auto;html=1;exitX=1;exitY=0.5;exitDx=0;exitDy=0;entryX=1;entryY=0.5;entryDx=0;entryDy=0;" parent="1" source="IIGgRlWlPwrDrrDaBenJ-9" target="IIGgRlWlPwrDrrDaBenJ-12" edge="1">
          <mxGeometry relative="1" as="geometry" />
        </mxCell>
        <mxCell id="IIGgRlWlPwrDrrDaBenJ-9" value="&lt;span style=&quot;font-size: 20px;&quot;&gt;Splitting into train and test data (30% test)&lt;/span&gt;&lt;div style=&quot;font-size: 20px;&quot;&gt;&lt;span style=&quot;font-size: 20px;&quot;&gt;(Same random state to enter same training images to models)&lt;/span&gt;&lt;/div&gt;" style="rounded=0;whiteSpace=wrap;html=1;fillColor=#1ba1e2;fontColor=#ffffff;strokeColor=#006EAF;fontStyle=1;fontSize=20;" parent="1" vertex="1">
          <mxGeometry x="1365" y="38" width="190" height="180" as="geometry" />
        </mxCell>
        <mxCell id="IIGgRlWlPwrDrrDaBenJ-46" style="edgeStyle=orthogonalEdgeStyle;rounded=0;orthogonalLoop=1;jettySize=auto;html=1;exitX=0;exitY=0.5;exitDx=0;exitDy=0;entryX=1;entryY=0.5;entryDx=0;entryDy=0;" parent="1" source="IIGgRlWlPwrDrrDaBenJ-11" target="IIGgRlWlPwrDrrDaBenJ-18" edge="1">
          <mxGeometry relative="1" as="geometry" />
        </mxCell>
        <mxCell id="IIGgRlWlPwrDrrDaBenJ-11" value="Preparing for SVM, RF enhancement" style="rounded=0;whiteSpace=wrap;html=1;fillColor=#1ba1e2;fontColor=#ffffff;strokeColor=#006EAF;fontStyle=1;fontSize=20;" parent="1" vertex="1">
          <mxGeometry x="1365" y="391" width="190" height="180" as="geometry" />
        </mxCell>
        <mxCell id="IIGgRlWlPwrDrrDaBenJ-47" style="edgeStyle=orthogonalEdgeStyle;rounded=0;orthogonalLoop=1;jettySize=auto;html=1;exitX=0;exitY=0.5;exitDx=0;exitDy=0;entryX=1;entryY=0.5;entryDx=0;entryDy=0;" parent="1" source="IIGgRlWlPwrDrrDaBenJ-12" target="IIGgRlWlPwrDrrDaBenJ-34" edge="1">
          <mxGeometry relative="1" as="geometry" />
        </mxCell>
        <mxCell id="IIGgRlWlPwrDrrDaBenJ-12" value="Normalizing the data for CNN" style="rounded=0;whiteSpace=wrap;html=1;fillColor=#1ba1e2;fontColor=#ffffff;strokeColor=#006EAF;fontStyle=1;fontSize=20;" parent="1" vertex="1">
          <mxGeometry x="1365" y="761" width="190" height="180" as="geometry" />
        </mxCell>
        <mxCell id="IIGgRlWlPwrDrrDaBenJ-43" style="edgeStyle=orthogonalEdgeStyle;rounded=0;orthogonalLoop=1;jettySize=auto;html=1;exitX=1;exitY=0.5;exitDx=0;exitDy=0;entryX=0;entryY=0.5;entryDx=0;entryDy=0;" parent="1" source="IIGgRlWlPwrDrrDaBenJ-15" target="IIGgRlWlPwrDrrDaBenJ-9" edge="1">
          <mxGeometry relative="1" as="geometry" />
        </mxCell>
        <mxCell id="IIGgRlWlPwrDrrDaBenJ-15" value="&lt;span style=&quot;font-size: 20px;&quot;&gt;Converting images to array of pixels&lt;/span&gt;" style="rounded=0;whiteSpace=wrap;html=1;fillColor=#1ba1e2;fontColor=#ffffff;strokeColor=#006EAF;fontStyle=1;fontSize=20;" parent="1" vertex="1">
          <mxGeometry x="1096" y="38" width="190" height="180" as="geometry" />
        </mxCell>
        <mxCell id="IIGgRlWlPwrDrrDaBenJ-48" style="edgeStyle=orthogonalEdgeStyle;rounded=0;orthogonalLoop=1;jettySize=auto;html=1;exitX=0;exitY=0.5;exitDx=0;exitDy=0;entryX=1;entryY=0.5;entryDx=0;entryDy=0;" parent="1" source="IIGgRlWlPwrDrrDaBenJ-18" target="IIGgRlWlPwrDrrDaBenJ-20" edge="1">
          <mxGeometry relative="1" as="geometry" />
        </mxCell>
        <mxCell id="IIGgRlWlPwrDrrDaBenJ-18" value="Apply PCA technique for better features extraction" style="rounded=0;whiteSpace=wrap;html=1;fillColor=#1ba1e2;fontColor=#ffffff;strokeColor=#006EAF;fontStyle=1;fontSize=20;" parent="1" vertex="1">
          <mxGeometry x="1096" y="391" width="190" height="180" as="geometry" />
        </mxCell>
        <mxCell id="IIGgRlWlPwrDrrDaBenJ-29" style="edgeStyle=orthogonalEdgeStyle;rounded=0;orthogonalLoop=1;jettySize=auto;html=1;exitX=0;exitY=0.5;exitDx=0;exitDy=0;entryX=1;entryY=0.5;entryDx=0;entryDy=0;" parent="1" source="IIGgRlWlPwrDrrDaBenJ-20" target="IIGgRlWlPwrDrrDaBenJ-27" edge="1">
          <mxGeometry relative="1" as="geometry" />
        </mxCell>
        <mxCell id="IIGgRlWlPwrDrrDaBenJ-30" style="edgeStyle=orthogonalEdgeStyle;rounded=0;orthogonalLoop=1;jettySize=auto;html=1;exitX=0;exitY=0.5;exitDx=0;exitDy=0;entryX=1;entryY=0.5;entryDx=0;entryDy=0;" parent="1" source="IIGgRlWlPwrDrrDaBenJ-20" target="IIGgRlWlPwrDrrDaBenJ-28" edge="1">
          <mxGeometry relative="1" as="geometry" />
        </mxCell>
        <mxCell id="IIGgRlWlPwrDrrDaBenJ-20" value="Apply Grid Search CV to detect best parameters for SVM, RF" style="rounded=0;whiteSpace=wrap;html=1;fillColor=#1ba1e2;fontColor=#ffffff;strokeColor=#006EAF;fontStyle=1;fontSize=20;" parent="1" vertex="1">
          <mxGeometry x="827" y="390" width="190" height="180" as="geometry" />
        </mxCell>
        <mxCell id="IIGgRlWlPwrDrrDaBenJ-50" style="edgeStyle=orthogonalEdgeStyle;rounded=0;orthogonalLoop=1;jettySize=auto;html=1;exitX=0;exitY=0.5;exitDx=0;exitDy=0;entryX=1;entryY=0.5;entryDx=0;entryDy=0;" parent="1" source="IIGgRlWlPwrDrrDaBenJ-27" target="IIGgRlWlPwrDrrDaBenJ-31" edge="1">
          <mxGeometry relative="1" as="geometry" />
        </mxCell>
        <mxCell id="IIGgRlWlPwrDrrDaBenJ-27" value="Apply best parameter to SVM model, pass training and testing data" style="rounded=0;whiteSpace=wrap;html=1;fillColor=#1ba1e2;fontColor=#ffffff;strokeColor=#006EAF;fontStyle=1;fontSize=20;" parent="1" vertex="1">
          <mxGeometry x="421" y="288" width="190" height="180" as="geometry" />
        </mxCell>
        <mxCell id="IIGgRlWlPwrDrrDaBenJ-51" style="edgeStyle=orthogonalEdgeStyle;rounded=0;orthogonalLoop=1;jettySize=auto;html=1;exitX=0;exitY=0.5;exitDx=0;exitDy=0;entryX=1;entryY=0.5;entryDx=0;entryDy=0;" parent="1" source="IIGgRlWlPwrDrrDaBenJ-28" target="IIGgRlWlPwrDrrDaBenJ-31" edge="1">
          <mxGeometry relative="1" as="geometry">
            <Array as="points">
              <mxPoint x="420" y="623" />
            </Array>
          </mxGeometry>
        </mxCell>
        <mxCell id="IIGgRlWlPwrDrrDaBenJ-28" value="Apply best parameter to RF model, pass training and testing data" style="rounded=0;whiteSpace=wrap;html=1;fillColor=#1ba1e2;fontColor=#ffffff;strokeColor=#006EAF;fontStyle=1;fontSize=20;" parent="1" vertex="1">
          <mxGeometry x="420" y="491" width="190" height="180" as="geometry" />
        </mxCell>
        <mxCell id="IIGgRlWlPwrDrrDaBenJ-31" value="Get Accuracy, Classification Report and Confusion matrix" style="rounded=0;whiteSpace=wrap;html=1;fillColor=#60a917;fontColor=#ffffff;strokeColor=#2D7600;fontStyle=1;fontSize=20;" parent="1" vertex="1">
          <mxGeometry x="15" y="533" width="190" height="180" as="geometry" />
        </mxCell>
        <mxCell id="IIGgRlWlPwrDrrDaBenJ-49" style="edgeStyle=orthogonalEdgeStyle;rounded=0;orthogonalLoop=1;jettySize=auto;html=1;exitX=0;exitY=0.5;exitDx=0;exitDy=0;entryX=1;entryY=0.5;entryDx=0;entryDy=0;" parent="1" source="IIGgRlWlPwrDrrDaBenJ-34" target="IIGgRlWlPwrDrrDaBenJ-35" edge="1">
          <mxGeometry relative="1" as="geometry" />
        </mxCell>
        <mxCell id="IIGgRlWlPwrDrrDaBenJ-34" value="Passing training and testing data to CNN model" style="rounded=0;whiteSpace=wrap;html=1;fillColor=#1ba1e2;fontColor=#ffffff;strokeColor=#006EAF;fontStyle=1;fontSize=20;" parent="1" vertex="1">
          <mxGeometry x="1096" y="761" width="190" height="180" as="geometry" />
        </mxCell>
        <mxCell id="IIGgRlWlPwrDrrDaBenJ-52" style="edgeStyle=orthogonalEdgeStyle;rounded=0;orthogonalLoop=1;jettySize=auto;html=1;exitX=0;exitY=0.5;exitDx=0;exitDy=0;entryX=1;entryY=0.5;entryDx=0;entryDy=0;" parent="1" source="IIGgRlWlPwrDrrDaBenJ-35" target="IIGgRlWlPwrDrrDaBenJ-31" edge="1">
          <mxGeometry relative="1" as="geometry">
            <Array as="points">
              <mxPoint x="312" y="851" />
              <mxPoint x="312" y="623" />
            </Array>
          </mxGeometry>
        </mxCell>
        <mxCell id="IIGgRlWlPwrDrrDaBenJ-35" value="Apply different layers, epochs, learning rate and optimizer to get maximum accuracy" style="rounded=0;whiteSpace=wrap;html=1;fillColor=#1ba1e2;fontColor=#ffffff;strokeColor=#006EAF;fontStyle=1;fontSize=20;" parent="1" vertex="1">
          <mxGeometry x="827" y="761" width="190" height="180" as="geometry" />
        </mxCell>
      </root>
    </mxGraphModel>
  </diagram>
</mxfile>
